<svg xmlns="http://www.w3.org/2000/svg" width="1000" height="520" viewBox="0 0 1000 520"><style>text{font-family:Arial,sans-serif;fill:#111}.title{font-size:26px;font-weight:bold}.label{font-size:16px}.small{font-size:13px}.axis{stroke:#333;stroke-width:1}.bar{fill:#4f81bd}.bar2{fill:#9bbb59}</style><text x="40" y="42" class="title">v0.17 Full Sequential Exit Distribution</text><text x="40" y="75" class="small">Percent of corrected-holdout segments assigned to each exit</text><line x1="120" y1="450" x2="940" y2="450" class="axis"/><line x1="120" y1="100" x2="120" y2="450" class="axis"/><text x="25" y="160" class="label">3-exit</text><text x="25" y="340" class="label">5-exit</text><rect x="160" y="125" width="48.5" height="55" class="bar"/><text x="160" y="115" class="small">E1 6.07%</text><rect x="220" y="145" width="34.7" height="35" class="bar"/><text x="218" y="205" class="small">E2 4.34%</text><rect x="270" y="105" width="716.8" height="75" class="bar"/><text x="580" y="150" class="label">E3 89.60%</text><rect x="160" y="305" width="54.6" height="55" class="bar2"/><text x="158" y="295" class="small">E1 6.83%</text><rect x="225" y="345" width="9.8" height="15" class="bar2"/><text x="215" y="385" class="small">E2 1.22%</text><rect x="250" y="275" width="148.7" height="85" class="bar2"/><text x="285" y="330" class="small">E3 18.59%</text><rect x="410" y="245" width="210.4" height="115" class="bar2"/><text x="475" y="310" class="small">E4 26.30%</text><rect x="635" y="215" width="376.5" height="145" class="bar2"/><text x="760" y="295" class="label">E5 47.06%</text><text x="120" y="485" class="small">The five-exit policy terminates 52.94% before Exit 5.</text></svg>